<?xml version="1.0" standalone="no"?>
<!DOCTYPE svg PUBLIC "-//W3C//DTD SVG 20010904//EN"
 "http://www.w3.org/TR/2001/REC-SVG-20010904/DTD/svg10.dtd">
<svg version="1.0" xmlns="http://www.w3.org/2000/svg"
 width="700.000000pt" height="700.000000pt" viewBox="0 0 700.000000 700.000000"
 preserveAspectRatio="xMidYMid meet">
<metadata>
Created by potrace 1.11, written by Peter Selinger 2001-2013
</metadata>
<g transform="translate(0.000000,700.000000) scale(0.100000,-0.100000)"
fill="#000000" stroke="none">
<path d="M1925 5865 c-147 -26 -261 -113 -324 -245 l-36 -75 0 -2056 0 -2055
38 -76 c62 -125 176 -213 307 -236 34 -5 667 -7 1635 -3 l1580 6 65 31 c81 39
145 96 187 165 47 79 63 154 62 289 -1 95 -3 107 -10 70 -28 -143 -143 -271
-287 -321 -53 -18 -109 -19 -1576 -19 -965 0 -1534 4 -1556 10 -57 16 -126 65
-164 117 -34 46 -65 118 -54 128 2 3 30 -4 61 -15 56 -20 80 -20 1665 -18
l1607 3 65 32 c75 37 156 113 194 183 35 64 56 164 55 265 l0 80 -17 -50 c-37
-107 -120 -208 -208 -253 -108 -55 -15 -52 -1734 -50 -1601 3 -1660 5 -1660
37 0 23 87 103 142 130 l61 31 1486 0 c944 0 1512 4 1556 10 188 28 331 162
371 349 11 55 14 321 14 1602 0 1004 -4 1555 -10 1590 -33 174 -167 312 -338
348 -81 17 -3082 14 -3177 -4z"/>
</g>
</svg>
