<svg id="a5ea60a6-7e3a-43b2-b481-a6d571d01698" data-name="Layer 1" xmlns="http://www.w3.org/2000/svg" width="1020" height="734.19614" viewBox="0 0 1020 734.19614"><title>reading</title><ellipse cx="502" cy="701.69614" rx="259" ry="32.5" fill="#3f3d56"/><path d="M1030.12537,506.7105,930,554.09807l88.6153-66.2619a500.05681,500.05681,0,0,0-48.38385-63.66846L536,532.09807,928.2334,382.47454a499.98032,499.98032,0,0,0-56.95764-43.41419L209.60925,445.6375a495.88,495.88,0,0,0-108.6029,309.46057h995.9873A495.61329,495.61329,0,0,0,1030.12537,506.7105Z" transform="translate(-90 -82.90193)" fill="#f2f2f2"/><path d="M817.12317,308.29344A495.97179,495.97179,0,0,0,599,258.09807c-153.82965,0-291.36139,69.75269-382.71033,179.34869C372.71606,403.17229,645.06689,343.84123,817.12317,308.29344Z" transform="translate(-90 -82.90193)" fill="#f2f2f2"/><circle cx="825.07983" cy="258.36001" r="14.92017" fill="#1070ca" opacity="0.4"/><circle cx="797.46639" cy="265.48606" r="10.46639" fill="#1070ca" opacity="0.4"/><circle cx="118.7521" cy="297.89782" r="31.2479" fill="#1070ca" opacity="0.4"/><circle cx="60.92017" cy="312.82219" r="21.92017" fill="#1070ca" opacity="0.4"/><rect y="671.19614" width="1020" height="2" fill="#2f2e41"/><path d="M994.44094,754.09807,915,636.09807s120.30709,42,106.65354,118Z" transform="translate(-90 -82.90193)" fill="#3f3d56"/><path d="M997.55906,754.09807l79.44094-118s-120.30709,42-106.65354,118Z" transform="translate(-90 -82.90193)" fill="#1070ca"/><path d="M298,215.6728c0-6.49686-9.2638-11.76359-20.69132-11.76359-.22617,0-.44993.00558-.67436.00968-3.44726-10.56733-19.74316-18.57-39.32885-18.57-16.66388,0-30.94586,5.79338-36.96,14.03014a52.407,52.407,0,0,0-13.61878-1.74372C169.20451,197.63529,155,205.711,155,215.6728c0,9.04918,11.72185,16.54056,27.00353,17.83751,11.10464,2.03037,28.45034,3.337,47.945,3.337,33.09671,0,57.3139-6.31342,57.92127-11.059C293.93431,223.73728,298,219.97573,298,215.6728Z" transform="translate(-90 -82.90193)" fill="#f2f2f2"/><path d="M798,220.6728c0-6.49686-9.2638-11.76359-20.69132-11.76359-.22617,0-.44993.00558-.67436.00968-3.44726-10.56733-19.74316-18.57-39.32885-18.57-16.66388,0-30.94586,5.79338-36.96,14.03014a52.407,52.407,0,0,0-13.61878-1.74372C669.20451,202.63529,655,210.711,655,220.6728c0,9.04918,11.72185,16.54056,27.00353,17.83751,11.10464,2.03037,28.45034,3.337,47.945,3.337,33.09671,0,57.3139-6.31342,57.92127-11.059C793.93431,228.73728,798,224.97573,798,220.6728Z" transform="translate(-90 -82.90193)" fill="#f2f2f2"/><path d="M1077,136.12784c0-11.40358-16.26024-20.648-36.31833-20.648-.397,0-.78973.0098-1.18366.017-6.05079-18.54826-34.65409-32.59493-69.03177-32.59493-29.24919,0-54.31755,10.16878-64.87384,24.62632a91.9875,91.9875,0,0,0-23.9043-3.06065c-30.7557,0-55.6881,14.17477-55.6881,31.66024,0,15.88353,20.57472,29.03273,47.39781,31.30919,19.49135,3.5638,49.93731,5.85718,84.15524,5.85718,58.09283,0,100.59992-11.0816,101.666-19.41123C1069.86372,150.283,1077,143.68054,1077,136.12784Z" transform="translate(-90 -82.90193)" fill="#f2f2f2"/><path d="M660.16983,372.8093c-20.68458-34.95054-61.60737-36.57939-61.60737-36.57939s-39.87693-5.09942-65.45772,48.13068c-23.84335,49.61483-56.7502,97.519-5.29774,109.13343l9.29381-28.9265,5.7556,31.08a201.31948,201.31948,0,0,0,22.0146.37625c55.10143-1.779,107.57721.52048,105.88757-19.25223C668.51249,450.48656,680.07254,406.4387,660.16983,372.8093Z" transform="translate(-90 -82.90193)" fill="#2f2e41"/><path d="M524.8692,678.88782a81.59233,81.59233,0,0,1-2.6386,11.35859c-1.29436,3.63968-3.29271,7.00569-4.47619,10.68291-3.77241,11.72135,1.45727,24.79036,9.80989,33.83772a55.21673,55.21673,0,0,0,26.92127,15.9859c7.53516,1.89512,15.37,2.16788,23.13532,2.4312,21.5027.72916,43.55865,1.38151,63.93373-5.5289a111.08156,111.08156,0,0,0,18.57467-8.43834,13.90664,13.90664,0,0,0,4.81973-3.795c1.554-2.21241,1.75281-5.08172,1.73925-7.78532-.04572-9.11556-1.89372-18.18463-1.45495-27.28974.243-5.04331,1.1869-10.08271.72229-15.11045a27.8756,27.8756,0,0,0-21.30394-24.01211c-5.78-1.2412-11.775-.56486-17.65954.00095a450.26334,450.26334,0,0,1-45.95953,2.055c-15.67852-.10007-31.26023-2.49338-46.86071-2.74333-4.61351-.07392-4.52031,1.34838-5.98909,5.81341A108.7667,108.7667,0,0,0,524.8692,678.88782Z" transform="translate(-90 -82.90193)" fill="#2f2e41"/><path d="M569.36353,453.80234c-.75345,3.9451-1.56781,8.0345-3.9386,11.27655-2.72766,3.73008-7.175,5.86135-10.10938,9.4311-4.41683,5.37321-4.67035,12.93418-4.68856,19.88971-.01677,6.40757.11338,13.24193,3.6866,18.5607,2.319,3.45191,5.84767,5.872,9.29623,8.196,13.40027,9.03061,27.88067,18.22335,44.0371,18.52117,6.69421.12339,13.87191-1.6054,18.27662-6.64783a27.442,27.442,0,0,0,4.42506-7.89466,104.83543,104.83543,0,0,0,7.42092-31.91454c.36794-5.157.33278-10.46448-1.4127-15.33108-1.96273-5.47232-5.93134-9.97494-8.55423-15.1633a33.75668,33.75668,0,0,1-3.24916-19.97556,2.15614,2.15614,0,0,0-.114-1.44765,2.10871,2.10871,0,0,0-1.73778-.70415l-32.0356-2.3062a69.71286,69.71286,0,0,1-8.89467-1.01754c-1.727-.35115-6.28826-2.80383-7.93493-2.15164C570.78831,436.33069,569.98833,450.53083,569.36353,453.80234Z" transform="translate(-90 -82.90193)" fill="#ffb8b8"/><path d="M569.36353,453.80234c-.75345,3.9451-1.56781,8.0345-3.9386,11.27655-2.72766,3.73008-7.175,5.86135-10.10938,9.4311-4.41683,5.37321-4.67035,12.93418-4.68856,19.88971-.01677,6.40757.11338,13.24193,3.6866,18.5607,2.319,3.45191,5.84767,5.872,9.29623,8.196,13.40027,9.03061,27.88067,18.22335,44.0371,18.52117,6.69421.12339,13.87191-1.6054,18.27662-6.64783a27.442,27.442,0,0,0,4.42506-7.89466,104.83543,104.83543,0,0,0,7.42092-31.91454c.36794-5.157.33278-10.46448-1.4127-15.33108-1.96273-5.47232-5.93134-9.97494-8.55423-15.1633a33.75668,33.75668,0,0,1-3.24916-19.97556,2.15614,2.15614,0,0,0-.114-1.44765,2.10871,2.10871,0,0,0-1.73778-.70415l-32.0356-2.3062a69.71286,69.71286,0,0,1-8.89467-1.01754c-1.727-.35115-6.28826-2.80383-7.93493-2.15164C570.78831,436.33069,569.98833,450.53083,569.36353,453.80234Z" transform="translate(-90 -82.90193)" opacity="0.1"/><circle cx="510" cy="328.19614" r="47" fill="#ffb8b8"/><path d="M575.95552,516.36673c2.44964,2.56043,5.04538,5.09564,8.25532,6.59659a25.94016,25.94016,0,0,0,10.31327,1.96365c8.47219.23832,17.65661-1.31407,23.55028-7.405,7.59724-7.85152,7.347-20.5153,13.302-29.67516a6.61046,6.61046,0,0,1,1.9189-2.09865,6.22017,6.22017,0,0,1,3.26377-.7504c7.52091-.07031,14.07236,4.80755,19.985,9.45614,2.64872,2.08246,5.36334,4.23989,7.03434,7.16566a24.28738,24.28738,0,0,1,2.37212,7.26441c2.93413,14.32315,3.88438,28.96808,4.82746,43.55822.5209,8.05879,1.04205,16.12534,1.00335,24.20086-.12754,26.60541-6.31151,52.76588-12.461,78.65115-.79236,3.33532-1.8767,7.06341-4.90983,8.661a12.107,12.107,0,0,1-4.28426,1.04567c-17.61343,2.06856-35.26331,4.13962-52.99569,4.41272q-10.38.15987-20.751-.50253a11.17843,11.17843,0,0,1-3.49561-.60939,9.85754,9.85754,0,0,1-3.81088-3.23626c-9.59166-12.08676-10.15782-28.79689-10.09652-44.22693q.22485-56.58768,4.0436-113.08493c.2102-3.10882.25609-6.88444-1.984-9.33C565.06954,504.8806,570.67962,510.85221,575.95552,516.36673Z" transform="translate(-90 -82.90193)" fill="#d0cde1"/><path d="M566,462.09807c-1.5874,2.87347-13.29062,10.0088-15.55005,12.39037-12.62376,13.3062-35.66394,12.8069-47.20928,27.0589-4.062,5.01431-6.17245,11.31471-7.7246,17.57843-2.19524,8.85894-3.36741,18.52042.31,26.87363,3.53853,8.03766,10.98753,13.59445,16.04492,20.77415,5.55294,7.88321,8.04966,17.45505,10.44233,26.79611,1.76666,6.8971,3.54793,13.965,2.85991,21.05148-.78227,8.05713-4.68119,15.43462-6.98322,23.19541s-2.69936,17.004,2.62329,23.10307c3.91038,4.4808,10.0439,6.25715,15.9065,7.25643a182.74446,182.74446,0,0,0,22.67164,1.97368c6.70175.2961,14.089.35367,19.241-3.94264,4.06516-3.39,5.832-8.89114,6.06069-14.17937s-.87157-10.52963-1.56075-15.77774c-.71443-5.44045-.989-10.9283-1.2187-16.41065q-1.54608-36.89792-.42194-73.84327c.15611-5.12521.34544-10.31336-.7474-15.32313-1.43728-6.5887-4.99817-12.477-7.9694-18.53076-5.89754-12.01606-8.68662-23.68875-7.775-37.0441C565.89984,461.91576,571.64862,451.87279,566,462.09807Z" transform="translate(-90 -82.90193)" fill="#1070ca"/><path d="M632,463.09807c2.41788,2.48505,10.63379,3.30428,13.70952,4.90469a48.03632,48.03632,0,0,0,9.01222,3.12032,117,117,0,0,1,31.6598,14.53071,19.214,19.214,0,0,1,5.2944,4.5731c1.72071,2.39375,2.34529,5.38064,2.92867,8.27037,1.506,7.46012,3.01958,15.01018,2.68115,22.61327-.35924,8.0706-2.79025,15.887-5.202,23.59719L683.07249,573.517c-6.72633,21.50411-13.49532,43.21993-15.388,65.67185A154.47715,154.47715,0,0,0,669.071,676.488c.198,1.23973.36412,2.66079-.45452,3.61263a3.55808,3.55808,0,0,1-2.20672,1.01536c-4.34926.68006-8.55828-1.53755-12.49883-3.49982a138.40992,138.40992,0,0,0-38.15515-12.48464,88.70243,88.70243,0,0,0,11.85086-24.42987,147.8524,147.8524,0,0,0,3.58055-16.8013l4.192-24.24515a238.23887,238.23887,0,0,0,3.596-26.81113,33.56415,33.56415,0,0,0-.58349-10.09976,48.995,48.995,0,0,0-3.82863-9.10817c-6.90856-14.37055-10.15009-30.76992-7.43183-46.48144,1.18959-6.87583,3.50132-13.76086,2.53736-20.67192-.92681-6.64471.0364-11.80881-1.66847-18.38472C621,441.09807,627.45114,458.4229,632,463.09807Z" transform="translate(-90 -82.90193)" fill="#1070ca"/><path d="M503.12112,524.26834c-3.14954,6.53574-8.41506,12.10359-10.2072,19.13379a41.80169,41.80169,0,0,0-.89,10.00043c-.04247,5.05966-.07,10.22192,1.48359,15.03733,1.00025,3.1002,2.62754,5.95927,3.79986,8.99858a32.62833,32.62833,0,0,1,2.13731,13.33147c-.31629,6.29555-2.45505,12.40665-2.6222,18.70793-.26285,9.90929,4.32048,19.22484,8.79273,28.07142a20.63627,20.63627,0,0,1,29.99568-9.82022c1.17979-1.08956,1.30578-2.87874,1.35194-4.484q.49587-17.24446.95661-34.48991c.4841-17.78081.94528-35.79922-3.145-53.10995-1.84675-7.81584-4.72029-15.60148-9.9881-21.66364-2.77379-3.192-12.19009-11.59994-16.74335-8.024-2.04763,1.6081-1.56906,5.98554-1.89351,8.20217A34.79828,34.79828,0,0,1,503.12112,524.26834Z" transform="translate(-90 -82.90193)" fill="#1070ca"/><path d="M698.20643,505.4339c1.48963,4.63871,1.57874,9.59525,1.60841,14.46719q.09078,14.90735-.39513,29.81076c-.16586,5.08639-.39423,10.24286-1.93649,15.09264-1.0171,3.19837-2.58668,6.19763-3.63709,9.38522-3.148,9.553-1.428,19.91418-1.1581,29.9689a34.05159,34.05159,0,0,1-.82466,9.69448c-1.66132,6.23314-6.126,11.26971-9.24211,16.91788-2.95947,5.36422-4.74519,11.37692-8.27977,16.38092s-9.65328,8.96906-15.584,7.4329c-4.49363-1.16394-7.68663-5.14144-9.8952-9.22428a45.2439,45.2439,0,0,1-4.67794-29.34817c2.21729-12.20357,9.38561-23.02973,11.97082-35.16069,3.55006-16.6585-1.84543-33.84876-1.68486-50.88057a24.59406,24.59406,0,0,1,1.07216-7.88708c1.356-3.8904,4.26837-6.99717,6.95885-10.11731a127.73672,127.73672,0,0,0,9.35266-12.27427c1.92613-2.87257,4.54212-10.26079,7.957-10.8751C687.43514,487.44579,696.31489,499.54361,698.20643,505.4339Z" transform="translate(-90 -82.90193)" fill="#1070ca"/><path d="M463.56045,671.4792a46.39142,46.39142,0,0,0-12.9047-1.37183,32.20806,32.20806,0,0,0-29.90214,37.96856,54.09778,54.09778,0,0,0,5.11352,13.97318c3.42235,6.94528,7.527,13.87462,13.86266,18.32532,3.7062,2.60355,7.99568,4.22683,12.23418,5.82355l33.3687,12.57057c4.90891,1.84927,9.81855,3.69881,14.77606,5.41356a289.01937,289.01937,0,0,0,77.17719,15.343c8.01242.47712,16.14614.60989,23.96273-1.21423,1.85493-.43288,3.83359-1.07818,4.90754-2.65132a8.40487,8.40487,0,0,0,1.0965-3.62168l2.05332-14.37463c.28912-2.024.5673-4.15447-.17452-6.05972-.94062-2.41584-3.2984-3.93557-5.54649-5.22676-21.93756-12.59985-47.55229-19.55109-66.01744-36.84417-4.347-4.07107-7.98474-10.52413-13.26629-13.28952-5.98921-3.13593-13.04264-4.92571-19.23332-7.81542C491.53437,682.11039,478.22826,674.85089,463.56045,671.4792Z" transform="translate(-90 -82.90193)" fill="#2f2e41"/><path d="M496.87425,690.85828C508.66868,694.554,558.4648,720.1584,567,729.09807c-1.14407.41219-39.961-21.34142-41.12578-21.691-10.58756-3.17755-21.234-6.37595-31.28844-11.02616-2.02267-.9355-13.14053-5.33257-12.637-7.88464C482.51691,685.61645,494.78042,690.20218,496.87425,690.85828Z" transform="translate(-90 -82.90193)" opacity="0.1"/><path d="M644.0172,786.98019a2.77052,2.77052,0,0,0,1.86971-.55026,2.8879,2.8879,0,0,0,.58442-2.15155q-.02748-9.79168-.05494-19.58335c-5.63143-2.68309-11.93057-3.54312-18.11352-4.36957l-28.84866-3.85608c.66281.0886-4.51064,12.42534-3.7174,14.07234,1.39811,2.90284,12.08274,5.47555,15.09819,6.84615C621.31779,782.15255,632.21076,787.39075,644.0172,786.98019Z" transform="translate(-90 -82.90193)" fill="#ffb8b8"/><path d="M553.505,764.62726c-5.44688.86756-11.52631,1.63445-15.0538,5.8745-4.47332,5.37695-2.569,13.39264-.43507,20.05362a8.635,8.635,0,0,0,1.85555,3.649c1.4563,1.43667,3.68794,1.64716,5.72955,1.77644,4.96748.31454,10.25388.561,14.59415-1.8756a63.96587,63.96587,0,0,0,5.66923-4.214,36.34812,36.34812,0,0,1,10.42334-4.76541,105.40148,105.40148,0,0,1,20.92307-4.31189,32.54116,32.54116,0,0,0,8.24247-1.45295c2.61889-.98647,5.04386-2.94254,5.80466-5.63567,1.00536-3.55885-1.063-7.18723-3.04679-10.30832-2.47114-3.88793-5.08912-7.9817-8.77372-10.84384-5.37539-4.17552-8.03443-.97015-13.44912,1.70186A114.10822,114.10822,0,0,1,553.505,764.62726Z" transform="translate(-90 -82.90193)" fill="#ffb8b8"/><path d="M539.27064,769.53353l-34.5857-10.22233c-4.20627-1.24323-8.4844-2.49733-12.87056-2.49408s-8.97517,1.4414-11.81981,4.78c-2.68188,3.14761-3.44949,7.44952-4.11808,11.53031l-1.4302,8.72942c-.72681,4.43619-1.45495,8.9577-.80077,13.40518s2.92456,8.8908,6.87078,11.0438c4.786,2.61115,10.65182,1.33578,15.99326.24359a174.121,174.121,0,0,1,32.77509-3.51465c4.13972-.04951,8.48179.00235,12.13981-1.93638,4.34827-2.30455,6.94966-7.1774,7.397-12.07825C549.502,781.56329,547.01653,771.823,539.27064,769.53353Z" transform="translate(-90 -82.90193)" fill="#2f2e41"/><path d="M657.6123,760.62541c4.48352-.7858,8.44047-3.334,12.73665-4.838,6.04709-2.11708,12.60022-2.11705,19.00716-2.09367,2.352.00858,4.85661.06132,6.81443,1.36473,2.82215,1.87884,3.54546,5.63881,4.02533,8.995l2.89524,20.24962c.54457,3.80874,1.08591,7.71939.23651,11.47194s-3.40722,7.37019-7.13092,8.33824c-4.52256,1.17574-8.95613-1.71327-13.22628-3.61107-10.67289-4.74341-23.0795-3.531-34.20791-7.07631-2.06521-.65793-4.27706-1.664-5.11956-3.661a8.32987,8.32987,0,0,1-.3983-3.49928c.19057-6.50883-1.18223-15.39675.77738-21.61735C645.78436,759.05393,652.60755,760.62541,657.6123,760.62541Z" transform="translate(-90 -82.90193)" fill="#2f2e41"/><path d="M730.80315,663.32877a60.05931,60.05931,0,0,1,21.157-1.4455c5.65608.62312,11.48358,2.197,15.61317,6.11184,5.02628,4.76494,6.64124,12.134,6.776,19.05863a59.5434,59.5434,0,0,1-12.94186,38.027,34.50425,34.50425,0,0,1-7.39914,7.12284,48.70264,48.70264,0,0,1-9.62673,4.63914l-74.72781,29.47483c-19.65925,7.75419-39.38787,15.53083-59.89351,20.64278a4.66784,4.66784,0,0,1-6.28108-2.2772,154.81912,154.81912,0,0,1-16.37825-29.96006,2.01884,2.01884,0,0,1,.89227-3.18318l52.85558-30.36919c3.786-2.17535,7.61432-4.382,10.758-7.41244a26.70785,26.70785,0,0,0,5.52323-7.68946c1.09561-2.28839,1.19782-7.68865,2.59727-9.38012,1.37018-1.65609,6.05736-1.78825,8.22214-2.43962a74.60686,74.60686,0,0,0,8.95108-3.38364c11.82339-5.2894,22.35194-12.97463,33.68626-19.168A86.43316,86.43316,0,0,1,730.80315,663.32877Z" transform="translate(-90 -82.90193)" fill="#2f2e41"/><path d="M700.83876,686.00837C691.758,692.82866,680,699.09807,671,706.09807c-3.0716,2.389-54.276,31.17666-55,35,8.39649,1.41476,61.883-36.00308,69.53554-39.73678s14.43633-8.999,21.15844-14.22547c1.71308-1.33192,8.97307-5.33589,4.05538-6.824C707.97906,679.47355,702.884,684.64489,700.83876,686.00837Z" transform="translate(-90 -82.90193)" opacity="0.1"/><polygon points="561.025 286.538 520.595 265.361 464.764 274.024 453.212 325.043 481.967 323.937 490 305.193 490 323.628 503.268 323.117 510.969 293.277 515.782 325.043 562.95 324.08 561.025 286.538" fill="#2f2e41"/><rect x="465" y="391.19614" width="87" height="105" fill="#3f3d56"/><path d="M513.69854,656.72064c1.99754,2.98208,4.33806,5.899,7.54661,7.50773a14.7585,14.7585,0,0,0,12.973-.3477,22.835,22.835,0,0,0,9.36212-9.38655c4.39391-7.759,5.30389-17.04346,4.75559-25.94335s-2.44861-17.66346-3.28967-26.54046c-.6114-6.453-.66112-12.94443-.71036-19.42612a6.46016,6.46016,0,0,1,.81637-3.92869c.97322-1.329,2.75513-1.69518,4.33416-2.16433,8.86789-2.63479,14.75415-10.94673,18.97418-19.17917,2.81783-5.497,5.26817-11.506,4.72479-17.65927s-4.96629-12.3521-11.11151-12.97981c-5.06629-.51751-9.74423,2.70035-13.39877,6.2471a57.45477,57.45477,0,0,0-16.82267,33.62021c-.80222,6.25647-.57244,12.6832-2.27415,18.757-3.63348,12.96874-15.00193,20.91995-20.6673,32.5895C502.66827,630.74531,506.11372,645.34341,513.69854,656.72064Z" transform="translate(-90 -82.90193)" fill="#ffb8b8"/><path d="M680.9919,607.17469a24.50892,24.50892,0,0,1-13.74441,13.20664,18.98254,18.98254,0,0,1-11.94829.73178,13.2493,13.2493,0,0,1-8.75287-7.829,21.0904,21.0904,0,0,1-.98593-5.88065c-.56854-8.74559-.34885-17.75765,2.82786-25.92569,1.22525-3.15042,2.87729-6.1382,3.84426-9.37724a47.02819,47.02819,0,0,0,1.44754-11.44411l1.04429-23.86232a15.52993,15.52993,0,0,0-.35446-5.17407c-1.04163-3.45274-4.26857-5.69655-7.22943-7.75561-7.15065-4.97275-14.21695-10.77542-17.68191-18.7663a13.16185,13.16185,0,0,1-1.2218-7.77332c.977-4.73839,5.75891-7.806,10.48531-8.83943a23.45383,23.45383,0,0,1,28.118,18.89993c.46761,2.69291.46118,5.44363.73488,8.1631.58057,5.76865,2.4119,11.32931,3.55756,17.0128,2.822,13.99961,1.35971,28.47117,4.15033,42.4684C677.61613,586.73285,686.41438,594.36933,680.9919,607.17469Z" transform="translate(-90 -82.90193)" fill="#ffb8b8"/><path d="M142.63086,753.1176l-2-.03906a463.83471,463.83471,0,0,1,7.09961-66.28711c8.64844-46.88086,23.0293-77.66992,42.74316-91.51172l1.14844,1.63672C145.57031,629.25041,142.6543,751.88225,142.63086,753.1176Z" transform="translate(-90 -82.90193)" fill="#2f2e41"/><path d="M167.63086,752.63909l-2-.03907c.043-2.21484,1.293-54.41406,21.84277-68.84179l1.14844,1.63672C168.90137,699.24065,167.64063,752.10686,167.63086,752.63909Z" transform="translate(-90 -82.90193)" fill="#2f2e41"/><circle cx="113" cy="504.19614" r="10" fill="#1070ca"/><circle cx="108.04785" cy="590.19614" r="10" fill="#1070ca"/><path d="M162.96963,603.09268c1.87935,12.004-3.01891,22.74063-3.01891,22.74063s-7.94529-8.72581-9.82464-20.72984,3.0189-22.74063,3.0189-22.74063S161.09027,591.08864,162.96963,603.09268Z" transform="translate(-90 -82.90193)" fill="#2f2e41"/><path d="M195.6568,632.24643c-11.493,3.9422-22.91878.98962-22.91878.98962s7.20793-9.34414,18.70088-13.28634,22.91879-.98962,22.91879-.98962S207.14975,628.30423,195.6568,632.24643Z" transform="translate(-90 -82.90193)" fill="#2f2e41"/><path d="M196.02605,708.40757a31.134,31.134,0,0,1-16.06421.69365,28.37377,28.37377,0,0,1,29.172-10.0063A31.134,31.134,0,0,1,196.02605,708.40757Z" transform="translate(-90 -82.90193)" fill="#2f2e41"/></svg>